<svg width="75" height="75" viewBox="0 0 75 75" fill="none" xmlns="http://www.w3.org/2000/svg">
<path d="M45.789 50.5236C45.9744 51.0619 46.4127 51.3889 46.875 51.3889C47.0227 51.3889 47.1714 51.3564 47.3168 51.2872L61.3793 44.5108C61.8176 44.2993 62.1048 43.7961 62.1094 43.236C62.1139 42.6744 61.8325 42.1658 61.3976 41.9461L47.3351 34.8335C46.7446 34.535 46.0511 34.8592 45.797 35.5658C45.5429 36.2711 45.8198 37.0876 46.4149 37.3887L57.8899 43.1925L46.4333 48.7128C45.8336 49.0017 45.5452 49.8128 45.789 50.5236Z" fill="white"/>
<path d="M15.9646 44.5108L30.0271 51.2872C30.1724 51.3564 30.3211 51.3889 30.4687 51.3889C30.9311 51.3889 31.3695 51.0619 31.5548 50.5236C31.7986 49.8127 31.5102 49.0016 30.9105 48.7127L19.4538 43.1925L30.9288 37.3887C31.5239 37.0876 31.8008 36.2711 31.5468 35.5658C31.2916 34.8591 30.5981 34.5337 30.0087 34.8334L15.9462 41.9461C15.5113 42.1658 15.2298 42.6744 15.2344 43.2359C15.2389 43.7961 15.5262 44.2993 15.9646 44.5108Z" fill="white"/>
<path d="M33.5084 56.8251C33.6628 56.9065 33.8242 56.9444 33.9832 56.9444C34.433 56.9444 34.8611 56.6365 35.0556 56.1197L44.4306 31.1197C44.6926 30.4186 44.4271 29.5979 43.8355 29.2859C43.245 28.9754 42.5525 29.2928 42.2882 29.9912L32.9132 54.9912C32.6511 55.6925 32.9167 56.5132 33.5084 56.8251Z" fill="white"/>
<path d="M70.3125 0H4.6875C2.09859 0 0 2.48722 0 5.55556V12.5V15.2778V69.4444C0 72.5126 2.09859 75 4.6875 75H70.3125C72.9014 75 75 72.5126 75 69.4444V15.2778V12.5V5.55556C75 2.48722 72.9014 0 70.3125 0ZM72.6562 69.4444C72.6562 70.9761 71.6048 72.2222 70.3125 72.2222H4.6875C3.39516 72.2222 2.34375 70.9761 2.34375 69.4444V15.2778H72.6562V69.4444ZM72.6562 12.5H2.34375V5.55556C2.34375 4.02389 3.39516 2.77778 4.6875 2.77778H70.3125C71.6048 2.77778 72.6562 4.02389 72.6562 5.55556V12.5Z" fill="white"/>
<path d="M7.03125 5.55557C5.90039 5.55557 4.98047 6.64585 4.98047 7.98613C4.98047 9.32627 5.90039 10.4167 7.03125 10.4167C8.16211 10.4167 9.08203 9.32627 9.08203 7.98613C9.08203 6.64585 8.16211 5.55557 7.03125 5.55557ZM7.03125 9.02779C6.54586 9.02779 6.15234 8.56141 6.15234 7.98613C6.15234 7.41085 6.54586 6.94446 7.03125 6.94446C7.51664 6.94446 7.91016 7.41085 7.91016 7.98613C7.91016 8.56141 7.51664 9.02779 7.03125 9.02779Z" fill="white"/>
<path d="M18.75 5.55557C17.6191 5.55557 16.6992 6.64585 16.6992 7.98613C16.6992 9.32627 17.6191 10.4167 18.75 10.4167C19.8809 10.4167 20.8008 9.32627 20.8008 7.98613C20.8008 6.64585 19.8809 5.55557 18.75 5.55557ZM18.75 9.02779C18.2646 9.02779 17.8711 8.56141 17.8711 7.98613C17.8711 7.41085 18.2646 6.94446 18.75 6.94446C19.2354 6.94446 19.6289 7.41085 19.6289 7.98613C19.6289 8.56141 19.2354 9.02779 18.75 9.02779Z" fill="white"/>
<path d="M12.8906 5.55557C11.7598 5.55557 10.8398 6.64585 10.8398 7.98613C10.8398 9.32627 11.7598 10.4167 12.8906 10.4167C14.0215 10.4167 14.9414 9.32627 14.9414 7.98613C14.9414 6.64585 14.0215 5.55557 12.8906 5.55557ZM12.8906 9.02779C12.4052 9.02779 12.0117 8.56141 12.0117 7.98613C12.0117 7.41085 12.4052 6.94446 12.8906 6.94446C13.376 6.94446 13.7695 7.41085 13.7695 7.98613C13.7695 8.56141 13.376 9.02779 12.8906 9.02779Z" fill="white"/>
</svg>
