<svg width="32" height="32" viewBox="0 0 32 32" fill="none" xmlns="http://www.w3.org/2000/svg">
<path d="M15.8912 0C10.9896 0 6.38666 0.5 3.93583 1.19922C2.30291 1.69922 0.89042 3.19922 0.59458 5.5C0.29874 7.89844 0 11.5 0 16C0 20.5 0.29584 24 0.66709 26.5C0.96583 28.6992 2.37542 30.3008 4.00834 30.8008C6.60999 31.5 11.0621 32 15.9637 32C20.8654 32 25.3175 31.5 27.9163 30.8008C29.5521 30.3008 30.9617 28.8008 31.2575 26.5C31.5562 24 31.9275 20.4023 32 15.9023C32 11.4023 31.6287 7.80078 31.2575 5.30078C30.9617 3.10156 29.5521 1.5 27.9163 1C25.3175 0.5 20.79 0 15.8912 0ZM15.8912 2C21.2367 2 25.5408 2.59766 27.6204 3.09766C28.7342 3.5 29.6246 4.5 29.7725 5.80078C30.2192 9 30.515 12.4023 30.515 15.9023C30.4425 20.1992 30.0712 23.6992 29.7725 26.1992C29.5521 28.0977 28.0671 28.6992 27.6204 28.9023C24.9463 29.6016 20.4913 30.0977 16.0363 30.0977C11.5813 30.0977 7.05375 29.6992 4.455 28.9023C3.34125 28.5 2.45083 27.5 2.30291 26.1992C1.70833 23.3984 1.485 19.6992 1.485 16C1.485 11.3984 1.78374 8 2.07958 5.90234C2.30291 4 3.86042 3.39844 4.23167 3.19922C6.6825 2.5 11.2129 2 15.8912 2ZM11.88 8V24L22.275 16L11.88 8ZM13.365 11.4023L19.305 16L13.365 20.5977V11.4023Z" fill="white"/>
</svg>
